<?xml version="1.0" standalone="no"?>
<!DOCTYPE svg PUBLIC "-//W3C//DTD SVG 1.1//EN" "http://www.w3.org/Graphics/SVG/1.1/DTD/svg11.dtd">
<svg xmlns="http://www.w3.org/2000/svg">
<metadata>Copyright (C) 2016 by original authors @ fontello.com</metadata>
<defs>
<font id="font_icons" horiz-adv-x="1000" >
<font-face font-family="font_icons" font-weight="400" font-stretch="normal" units-per-em="1000" ascent="850" descent="-150" />
<missing-glyph horiz-adv-x="1000" />
<glyph glyph-name="up-open-big" unicode="&#xe800;" d="M804 130l-372 358-370-358q-26-22-50 0-24 24 0 50l396 390q26 26 48 0l396-390q24-26 0-50-26-22-48 0z" horiz-adv-x="864" />

<glyph glyph-name="down-open-big" unicode="&#xe801;" d="M63 570l370-356 372 356q22 26 48 0 26-22 0-48l-396-392q-22-22-48 0l-396 392q-26 26 0 48 24 24 50 0z" horiz-adv-x="866" />

<glyph glyph-name="star-half" unicode="&#xe802;" d="M464 832v-747l-250-132q-12-7-23-7-11 0-17 9t-6 19q0 4 1 12l48 279-203 197q-14 15-14 27 0 21 31 26l280 40 126 254q11 23 27 23z" horiz-adv-x="500" />

<glyph glyph-name="play" unicode="&#xe80e;" d="M486 376q14-10 14-26 0-14-14-24l-428-266q-24-16-41-6t-17 40l0 514q0 30 17 40t41-6z" horiz-adv-x="500" />

<glyph glyph-name="star-empty" unicode="&#xe80f;" d="M635 290l170 166-235 34-106 213-105-213-236-34 171-166-41-235 211 111 211-111z m294 199q0-12-15-27l-202-197 48-279q0-4 0-12 0-28-23-28-10 0-22 7l-251 132-250-132q-12-7-23-7-11 0-17 9t-6 19q0 4 1 12l48 279-203 197q-14 15-14 27 0 21 31 26l280 40 126 254q11 23 27 23t28-23l125-254 280-40q32-5 32-26z" horiz-adv-x="928.6" />

<glyph glyph-name="star-1" unicode="&#xe810;" d="M929 489q0-12-15-27l-202-197 48-279q0-4 0-12 0-11-6-19t-17-9q-10 0-22 7l-251 132-250-132q-12-7-23-7-11 0-17 9t-6 19q0 4 1 12l48 279-203 197q-14 15-14 27 0 21 31 26l280 40 126 254q11 23 27 23t28-23l125-254 280-40q32-5 32-26z" horiz-adv-x="928.6" />

<glyph glyph-name="triangle-down" unicode="&#xe81c;" d="M1570 817a91 91 0 0 1-70 33h-1400a91 91 0 0 1-70-33 118 118 0 0 1 0-156l700-778a91 91 0 0 1 140 0l700 778a118 118 0 0 1 0 156z" horiz-adv-x="1600" />

<glyph glyph-name="user" unicode="&#xe81d;" d="M688 135l-160 80a44 44 0 0 0-24 39v57c4 4 8 10 12 15a376 376 0 0 1 49 97 66 66 0 0 1 40 60v67a67 67 0 0 1-17 44v88a150 150 0 0 1-35 109c-35 39-91 59-167 59s-131-20-166-59a148 148 0 0 1-35-109v-88a67 67 0 0 1-17-44v-67a66 66 0 0 1 26-52 349 349 0 0 1 58-120v-55a44 44 0 0 0-23-39l-150-81a150 150 0 0 1-78-132v-54c0-79 252-100 385-100s386 21 386 100v51a149 149 0 0 1-84 134z" horiz-adv-x="773" />

<glyph glyph-name="map" unicode="&#xe81e;" d="M602 752a367 367 0 0 1-498 0 313 313 0 0 1-104-235 259 259 0 0 1 23-117l251-504a77 77 0 0 1 33-34 93 93 0 0 1 46-12 92 92 0 0 1 46 12 82 82 0 0 1 33 34l251 504a259 259 0 0 1 23 117 313 313 0 0 1-104 235z m-124-353a184 184 0 0 0-250 0 160 160 0 0 0 0 236 184 184 0 0 0 250 0 160 160 0 0 0 0-236z" horiz-adv-x="706" />

<glyph glyph-name="insurance" unicode="&#xe81f;" d="M83-108a41 41 0 1 1 82 0v381h42v-381a41 41 0 1 1 83 0v648h20v-233a36 36 0 0 1 15-32 27 27 0 0 1 31 0 35 35 0 0 1 16 32v251a76 76 0 0 1-27 63 116 116 0 0 1-75 22h-165a130 130 0 0 1-76-20 71 71 0 0 1-29-63v-267a27 27 0 0 1 16-26 32 32 0 0 1 31 0 28 28 0 0 1 15 26v247h21v-648h0z m16 873a85 85 0 0 1 146-61 83 83 0 0 1 25 62 81 81 0 0 1-25 59 86 86 0 0 1-146-60h0z m844-425a19 19 0 0 1-13 15l-229 64a18 18 0 0 1-10 0l-229-64a19 19 0 0 1-14-15c-1-10-31-235 46-348a366 366 0 0 1 197-141 19 19 0 0 1 9 0 366 366 0 0 1 197 141c78 113 47 338 46 347z m-100-132l-156-156a19 19 0 0 0-26 0l-97 96a19 19 0 0 0 0 27l19 19a19 19 0 0 0 27 0l64-64 124 123a19 19 0 0 0 26 0l19-19a19 19 0 0 0 0-26z" horiz-adv-x="950" />

<glyph glyph-name="credit" unicode="&#xe820;" d="M524 805a103 103 0 1 0-102-103 102 102 0 0 0 102 103z m200-484l-47 222a87 87 0 0 1-86 62h0a147 147 0 0 1-23-2 80 80 0 0 1-21-7 94 94 0 0 1-54-71 45 45 0 0 1-2-5c-7-51-12-84-27-102s-49-29-110-37a39 39 0 0 1-27-17l-67 252h31v47h-44l-7 28h-112v159h-128v-976h128v383h227l-13 48a39 39 0 0 1 17-4 45 45 0 0 1 5 1c84 11 130 30 159 64l18-84a74 74 0 0 1 47-54l0-324a54 54 0 0 1 54-54h0a54 54 0 0 1 54 54l-1 343a76 76 0 0 1 29 74z m-669 69h30v-34a7 7 0 0 1 1-4 4 4 0 0 1 3-2h23a4 4 0 0 1 3 2 6 6 0 0 1 2 4v34h69a4 4 0 0 1 3 1 7 7 0 0 1 1 5v22a7 7 0 0 1-1 4 4 4 0 0 1-3 2h-69v21h46a55 55 0 0 1 45 22 99 99 0 0 1 0 111 55 55 0 0 1-45 22h-74a4 4 0 0 1-3-1 6 6 0 0 1-1-5v-111h-31a4 4 0 0 1-3-2 7 7 0 0 1-1-4v-26a7 7 0 0 1 1-4 4 4 0 0 1 3-2h31v-21h-31a4 4 0 0 1-3-2 7 7 0 0 1-1-4v-22a7 7 0 0 1 1-5 4 4 0 0 1 3-1z m62 172h43a29 29 0 0 0 24-11 51 51 0 0 0 0-57 29 29 0 0 0-24-11h-43v79z" horiz-adv-x="725" />

<glyph glyph-name="consumer" unicode="&#xe821;" d="M138 11a48 48 0 1 0-47-48 48 48 0 0 0 47 48z m222 0a48 48 0 1 0-47-48 48 48 0 0 0 47 48z m-360 306l97-283a8 8 0 0 1 4-7h297a4 4 0 0 1 4 4s1 329 1 331a4 4 0 0 0 4 4h36a4 4 0 0 1 4 5v23a4 4 0 0 1-4 4h-71a4 4 0 0 1-4-4v-68a4 4 0 0 0-5-4h-360a4 4 0 0 1-3-5z m369-234a4 4 0 0 0-4-4h-248a4 4 0 0 0-4 4v20a4 4 0 0 0 4 4h248a4 4 0 0 0 4-4v-20z m0 55a4 4 0 0 0-4-4h-270a4 4 0 0 0-4 4v21a4 4 0 0 0 4 4h270a4 4 0 0 0 4-4v-21z m0 55a4 4 0 0 0-4-5h-289a4 4 0 0 0-4 5v20a4 4 0 0 0 4 4h289a4 4 0 0 0 4-4v-20z m-315 74a4 4 0 0 0 4 4h307a4 4 0 0 0 4-4v-21a4 4 0 0 0-4-4h-307a4 4 0 0 0-4 4v21z m568 583a81 81 0 1 0-80-81 80 80 0 0 0 80 81z m234-1000a36 36 0 0 1 9 1 41 41 0 0 1 29 49l-100 409c11 3 29 16 24 55l-54 304a17 17 0 0 1-19 14l-123-24c-1 0-2 0-3-1l-2 0a15 15 0 0 1-3-1 41 41 0 0 1-24-22l-48-111s-57-14-67-16l-22-5a41 41 0 0 1-30-49 40 40 0 0 1 39-31 38 38 0 0 1 9 1l71 17a38 38 0 0 1 6 1l32 8a41 41 0 0 1 28 24l18 41 33-188-111-158a40 40 0 0 1-7-21l-17-254a40 40 0 0 1 37-43h3a40 40 0 0 1 39 38l17 242 101 144 96-393a40 40 0 0 1 39-31z m169 679a70 70 0 1 0-69-70 70 70 0 0 0 69 70z m145-370a40 40 0 0 1 1 42l-39 141a19 19 0 0 1-16 16 20 20 0 0 1-4 0h-112a18 18 0 0 1-5 0 29 29 0 0 1-16-9l-111-122a30 30 0 0 1 2-42 29 29 0 0 1 41 2l70 75v-66l-34-263a35 35 0 0 1 29-39 22 22 0 0 1 5 0 34 34 0 0 1 33 30l24 188h27l6-185a34 34 0 0 1 35-33h1a34 34 0 0 1 33 36l-8 227a28 28 0 0 1 38 2z" horiz-adv-x="1176" />

<glyph glyph-name="medicine" unicode="&#xe822;" d="M518 383c-112-25-168 27-171 30a37 37 0 0 1-52 0 36 36 0 0 1 0-51 239 239 0 0 1 166-58 343 343 0 0 1 73 8 36 36 0 1 1-16 71z m-331 176a82 82 0 1 0-83-82 82 82 0 0 0 83 82z m760-416l-154 62a47 47 0 0 1-16 3h-40v8a24 24 0 0 1-3 12l145-39a46 46 0 0 1 12-2 44 44 0 0 1 42 32 43 43 0 0 1-31 53l-191 52a43 43 0 0 1-12 1l-130 0a49 49 0 0 0-35-29 306 306 0 0 0-65-7 311 311 0 0 0-181 59 49 49 0 0 0-8 69 50 50 0 0 0 69 8 201 201 0 0 1 75-32l-80 51a70 70 0 0 1-84-14 66 66 0 0 1-12-13 105 105 0 0 1-8-17l0 0a69 69 0 0 1 22-82l153-98a61 61 0 0 1 5-3v-9h-43l-203 140a21 21 0 0 1 2 3 25 25 0 0 1-8 35l-69 43a25 25 0 0 1-34-7 45 45 0 0 1-57-14 44 44 0 0 1 12-62l317-219a45 45 0 0 1 26-8h59a27 27 0 0 1 25-17h56v-209h-27a21 21 0 1 1 0-43h209a21 21 0 1 1 0 43h-31v209h57a26 26 0 0 1 24 17h33l146-59a46 46 0 0 1 17-3 45 45 0 0 1 16 86z m-579 318c82 0 127 22 156 47v-56c-2-11-7-32-13-57 2 0 4 1 7 1a49 49 0 0 0 10 1 50 50 0 0 0 49-39 51 51 0 0 0 0-19l125 1a59 59 0 0 0 15-2l18-5c-10 50-22 99-27 119v67a286 286 0 0 0 21-128 35 35 0 0 1 34-35h1a35 35 0 0 1 35 34c2 165-81 242-161 271 0 0 0 0 0 0l-22-22-22 22a103 103 0 0 1-35-16 260 260 0 0 1-53-52c-25-34-46-63-138-63a35 35 0 1 1 0-69z m249 207a84 84 0 0 1 85 83 81 81 0 0 1-18 52h-27v12h14a76 76 0 0 1-17 11 41 41 0 0 1-73 0 84 84 0 0 1-18-11h17v-12h-29a83 83 0 0 1-18-51 84 84 0 0 1 84-84z m0 164a23 23 0 1 0-22-22 23 23 0 0 0 22 23z" horiz-adv-x="975" />

<glyph glyph-name="house" unicode="&#xe823;" d="M557 849a9 9 0 0 1-9 0l-128-89c-3-2-4-1-4 2v62a6 6 0 0 1-7 5h-83a4 4 0 0 1-5-5v-127a13 13 0 0 0-5-9l-314-217c-3-2-3-4 1-4h139c3 0 6-1 6-4v-607a6 6 0 0 1 6-6h797a6 6 0 0 1 6 6v607c0 3 2 4 5 4h146c4 0 4 2 1 4z m190-355a42 42 0 1 0-43-42 43 43 0 0 0 43 42z m-242-259a27 27 0 0 0 16-5 4 4 0 0 1 4 1 29 29 0 0 0 19 7 30 30 0 0 0 20-8 3 3 0 0 1 4 0 28 28 0 0 0 17 5 15 15 0 0 0 8-22 55 55 0 0 0-10-18 52 52 0 0 1 0 23 6 6 0 0 1-5 1 15 15 0 0 1-4-1 3 3 0 0 1-1-3 40 40 0 0 0 0-6 29 29 0 0 0-58 0 24 24 0 0 0 1 6 3 3 0 0 1-2 3 11 11 0 0 1-2 1 7 7 0 0 1-5-1 57 57 0 0 1 0-23 56 56 0 0 0-11 18 15 15 0 0 0 9 22z m-162 260a42 42 0 1 0-43-43 43 43 0 0 0 43 43z m524-295a22 22 0 0 0-28 15l-33 107a4 4 0 0 1-4 3h-5a2 2 0 0 1-1-3l67-215a3 3 0 0 0-3-4h-47a2 2 0 0 1-2-2v-157a29 29 0 0 0-58 0v157a2 2 0 0 1-2 2h-5a2 2 0 0 1-2-2v-157a29 29 0 0 0-58 0v157a2 2 0 0 1-2 2h-47a2 2 0 0 0-3 4l67 215a2 2 0 0 1-2 3h-4a3 3 0 0 1-4-3l-36-115a151 151 0 0 0-11-19l-45-72a8 8 0 0 1-1-4l20-93a2 2 0 0 0-2-2h-12v-77a29 29 0 0 0-28-25 27 27 0 0 0-27 26l0 70a2 2 0 0 1-2 2h-4a2 2 0 0 1-2-2v-70a30 30 0 0 0-30-26 28 28 0 0 0-27 26v76h-13a2 2 0 0 0-2 2l20 95a6 6 0 0 1-1 4s-48 83-49 84h0a33 33 0 0 0-3 10l-18 113a2 2 0 0 1-3 2h-5a2 2 0 0 1-2-2v-379a29 29 0 0 0-58 0v223a2 2 0 0 1-2 2h-5a2 2 0 0 1-2-2v-223a29 29 0 0 0-58 0v379a2 2 0 0 1-3 2h-4a2 2 0 0 1-3-2l0-135a22 22 0 0 0-45 0v153a53 53 0 0 0 53 54h128a56 56 0 0 0 54-54c0-1 15-111 18-128l28-46a4 4 0 0 1 3-2h65a6 6 0 0 1 4 2s26 40 30 47c6 19 38 120 38 120 5 17 14 57 52 57h95c35 0 47-40 52-57 0-1 34-108 34-108a22 22 0 0 0-15-28z" horiz-adv-x="1111" />

<glyph glyph-name="gkh" unicode="&#xe824;" d="M1178 805h-162a34 34 0 0 1-34-34v-76a34 34 0 0 1 0-69h66a34 34 0 0 1 2 69v42h94v-853a34 34 0 1 1 68 0v887a34 34 0 0 1-34 34z m-148-279a15 15 0 0 1-9 9 15 15 0 0 1-19-9l-20-58a36 36 0 0 1 0-24 36 36 0 1 1 68 24z m0-204a15 15 0 0 1-9 9 15 15 0 0 1-19-9l-20-59a36 36 0 0 1 0-23 36 36 0 0 1 68 23z m-462 528a111 111 0 1 0-110-111 111 111 0 0 0 110 111z m322-385a34 34 0 0 1-45-17l-21-45a23 23 0 0 0-31-11 24 24 0 0 0-11 31l20 45a34 34 0 1 1-61 29l-21-46a92 92 0 0 1 16-101l-14-30a99 99 0 0 0 34-90l42 91a92 92 0 0 1 88 53l21 45a34 34 0 0 1-17 46z m-237-318a34 34 0 0 1 18-20 34 34 0 0 1 45 17l16 36a97 97 0 0 0-79-33z m-272 312l41-161a51 51 0 0 1 32-35l189-66a50 50 0 0 1 33 95l-164 57-37 146 70-106 23-8 34 88a75 75 0 0 1-43 97l-124 47a75 75 0 0 1-96-43l-128-336a70 70 0 0 1-6-36l35-228h-180a60 60 0 0 1 0-120h250a60 60 0 0 1 59 69l-34 225 154-39-43-181a60 60 0 1 1 116-28c61 259 59 244 58 258-94 33-95 34-182 64a96 96 0 0 0-64 79z" horiz-adv-x="1212" />

<glyph glyph-name="criminal" unicode="&#xe825;" d="M40 451l12-20c3 0 6 1 9 1h49l11 19a14 14 0 0 1-12 21h-57a14 14 0 0 1-12-21z m577-410c74 30 146 61 220 91a48 48 0 0 1 38 46 68 68 0 0 1-32 62 53 53 0 0 1-51 2c-45-18-89-37-135-55a68 68 0 0 0-14-5c-2 4-3 8-5 13-19 45-17 39-36 83-1 2-7 17-14 30a179 179 0 0 0-57-82l-28-23c20-47 39-94 59-140a35 35 0 0 1 55-22z m-508 259h-57a35 35 0 0 1-35-26l-16-71a65 65 0 0 1 64-77h31a65 65 0 0 1 63 77l-15 71a35 35 0 0 1-35 26z m239-145c37 21 74 42 112 64l45 37c7 5 80 66 32 141l-112 179a128 128 0 0 1-8 12 82 82 0 0 0 10 1c44 0 89 0 133 1a17 17 0 0 0 17-9c16-25 31-51 47-76a47 47 0 0 1 66-18 43 43 0 0 1 17 66q-33 54-67 108a39 39 0 0 1-35 20c-73-1-146 0-219-2a81 81 0 0 1-39-12c-41-25-80-53-120-79a66 66 0 0 1-33-60c0-35 0-70 0-105a142 142 0 0 1 0-14 67 67 0 0 0-13 0c-40 0-79 0-119 0a45 45 0 0 1-50-45 45 45 0 0 1 49-46c64 0 129 0 193 0a27 27 0 0 1 30 31c1 29 0 60 0 89 1 1 1 1 1 6 31-47 61-91 91-137a43 43 0 0 0-11-8c-38-23-77-48-115-70a52 52 0 0 1-27-47c1-92 1-184 1-275a61 61 0 0 1 118-16 51 51 0 0 1 1 16q-1 117-1 233a15 15 0 0 0 6 15z m-249 587a108 108 0 0 1 109-106 107 107 0 1 1-109 106z" horiz-adv-x="875" />

<glyph glyph-name="auto" unicode="&#xe826;" d="M1212 161a110 110 0 0 1-10 47c-1 4-2 8-3 11l-73 182-1 2c-26 76-62 147-155 147h-356c-95 0-129-72-155-147l-77-182a112 112 0 0 1-17-60v-56a110 110 0 0 1 3-26 44 44 0 0 1-3-16v-168a45 45 0 0 1 45-45h93a45 45 0 0 1 44 45v84h488v-84a45 45 0 0 1 45-45h87a45 45 0 0 1 45 45v168a45 45 0 0 1-3 16 110 110 0 0 1 3 26v56h0z m-698 224c29 82 53 108 100 108h356c47 0 73-28 100-108l54-108a165 165 0 0 1-57 10h-557a166 166 0 0 1-52-8z m46-302h-98a32 32 0 1 0 0 64h98a32 32 0 1 0 0-64z m347 7h-229a20 20 0 1 0 0 40h229a20 20 0 1 0 0-41z m206-7h-98a32 32 0 1 0 0 64h98a32 32 0 1 0 0-64z m-1032-191a41 41 0 1 1 81 0v381h41v-381a41 41 0 1 1 81 0v648h20v-233a36 36 0 0 1 14-32 26 26 0 0 1 31 0 35 35 0 0 1 16 32v251a77 77 0 0 1-27 63 112 112 0 0 1-74 22h-161a126 126 0 0 1-74-20 71 71 0 0 1-29-63v-267a27 27 0 0 1 16-26 31 31 0 0 1 30 0 28 28 0 0 1 15 26v247h20v-648h0z m16 872a83 83 0 0 1 24-60 82 82 0 0 1 119 0 84 84 0 0 1 24 61 82 82 0 0 1-24 60 82 82 0 0 1-119 0 83 83 0 0 1-24-61h0z" horiz-adv-x="1212" />

<glyph glyph-name="job" unicode="&#xe827;" d="M207 850a82 82 0 1 0-84-82 83 83 0 0 0 84 82z m379-789h-26v397l4 1a40 40 0 0 1 27 50 40 40 0 0 1-31 27v96a28 28 0 0 1-55 0v-108l-84-25s-7 52-9 70a97 97 0 0 1-96 90h-218a95 95 0 0 1-96-93l-2-292a40 40 0 0 1 40-40h1a40 40 0 0 1 40 40l2 291v0a8 8 0 0 0 16 0v-667a49 49 0 0 1 97 0v371a11 11 0 0 0 21 0v-371a49 49 0 0 1 97 0c0 91 0 669 0 669a8 8 0 0 0 6 8 8 8 0 0 0 9-5c2-11 0 2 18-128a40 40 0 0 1 18-29 41 41 0 0 1 34-4l106 32v-380h-27a46 46 0 0 1-46-45v-64a63 63 0 0 1 22-47l51-44a43 43 0 0 1 55 0l51 44a63 63 0 0 1 22 47v64a46 46 0 0 1-47 45z m104-211a18 18 0 0 0-16 10 17 17 0 0 0 3 19l34 39a35 35 0 0 0 14 10l63 23a35 35 0 0 1 19 18l13 28a35 35 0 0 0 24 19l33 8a35 35 0 0 1 25 22l36 96 14 37a12 12 0 0 0 13 7 12 12 0 0 0 10-12v-306a18 18 0 0 0-18-18h-267z" horiz-adv-x="975" />

<glyph glyph-name="family" unicode="&#xe828;" d="M471 662a62 62 0 1 0-63-62 63 63 0 0 0 63 62z m2 188a55 55 0 1 0-55-55 55 55 0 0 0 55 55z m-180-998a28 28 0 0 1 27 26v152a7 7 0 0 0 5 5 41 41 0 0 1 18 42 3 3 0 0 1-4 2l-23-14a18 18 0 0 0-8-2h-153c-5 0-6 6-6 11 0 2 0 6 0 8v84c0 2 0 2-2 1-25-12-112-59-136-72-19-11-15-41 20-41h49a7 7 0 0 0 7-3s-2-173-2-174a25 25 0 1 1 50 0c0 1-1 76-1 76a5 5 0 0 0 5 5h80c2 0 3-2 2-4-8-12-28-48-38-62a24 24 0 0 1 2-32 24 24 0 0 1 35 0 756 756 0 0 1 42 72c1 2 2 1 2-1 0-20 0-42 0-53v0a28 28 0 0 1 29-26z m232-2a41 41 0 0 1 40 38v575l68 55a37 37 0 0 1 11 14l55 132a37 37 0 0 1-20 49 38 38 0 0 1-42-10 37 37 0 0 1-7-10l-7-17-80 45a25 25 0 0 1-12 3h-119a25 25 0 0 1-13-4l-79-45-7 18a38 38 0 0 1-49 20 37 37 0 0 1-21-49l56-131a37 37 0 0 1 11-15l78-63c0-1 0-566 0-566a38 38 0 0 1 76-5c1 2 1 309 1 309a4 4 0 0 0 4 4h15a4 4 0 0 0 4-4v-305a39 39 0 0 1 37-38z m-104 674l-56 46-25 59 79 45h105l79-44-25-60-56-46h-101z m294 2a39 39 0 1 0-40-39 39 39 0 0 0 40 39z m284-217l-6 32-16 74a42 42 0 0 1-38 34h-62c-6 0-14 18-19 18h-68a39 39 0 0 1-24-5l-3-2-52-42a23 23 0 0 1-4-5 35 35 0 0 1-5-18v-49a68 68 0 0 1 53-73h8a3 3 0 0 0 0-1l-38-143a3 3 0 0 1 3-3h46a3 3 0 0 0 3-3v-234c0-2 0-4 0-4a1 1 0 0 1 0 0 34 34 0 0 1 34-34 33 33 0 0 1 33 34v239a3 3 0 0 0 4 4l12-1a4 4 0 0 0 3-3v-235c0-2 0-4 0-4s0-1 0-1 0 0 0 0a32 32 0 0 1 33-33 34 34 0 0 1 34 34c0 2 0 5 0 7v230a4 4 0 0 0 4 4l35 1a3 3 0 0 1 2 4l-26 142h10c54 0 44 36 44 36z m-141 302a62 62 0 1 0-63-62 63 63 0 0 0 63 62z" horiz-adv-x="1000" />

<glyph glyph-name="legacy" unicode="&#xe829;" d="M1134 304h-591a9 9 0 0 1-10-9v-84a9 9 0 0 1 10-10h91v-326a26 26 0 0 1 51 0v326h306v-326a26 26 0 0 1 51 0v326h91a9 9 0 0 1 10 10v84a9 9 0 0 1-9 9z m-731 546a101 101 0 1 0-103-101 102 102 0 0 0 103 101z m75-630a55 55 0 0 1-36 33l-58 19 10 36a62 62 0 0 0-47 36l-72 168 111-138a47 47 0 0 1 40-18l96 8a25 25 0 0 1-1-7 26 26 0 0 1 26-25h257a25 25 0 1 1 0 50h-166a45 45 0 0 1 16 38 46 46 0 0 1-50 42l-8-1c-28 63-20 45-31 68a26 26 0 0 1-34 13 25 25 0 0 1-13-33l23-52-98-8-95 120 101-74 3 11a68 68 0 0 1-47 85l-114 32a71 71 0 0 1-55-8 68 68 0 0 1-32-44l-69-331a57 57 0 0 1 15-51h-26l-50 388a37 37 0 0 1-42 31 37 37 0 0 1-32-41l54-420a37 37 0 0 1 37-32h134v-149l-88-71a25 25 0 0 1-4-36 26 26 0 0 1 36-3l56 44v-25a26 26 0 0 1 52 0v26l56-45a26 26 0 0 1 36 3 25 25 0 0 1-4 36l-88 71v149h120l83-229a56 56 0 0 1 53-36 57 57 0 0 1 18 3 55 55 0 0 1 34 70z" horiz-adv-x="1143" />

<glyph glyph-name="civil" unicode="&#xe82a;" d="M932 586a88 88 0 0 1-88 86h-199a86 86 0 0 1-16-1 137 137 0 0 0 51-106l1-291a82 82 0 0 0-10-41 59 59 0 0 0 17-42v-157a60 60 0 0 0-43-58v-10a45 45 0 0 1 90 0v344a10 10 0 0 0 19 0v-344a45 45 0 0 1 89 0l-1 619a8 8 0 0 0 16 0h0l1-270a37 37 0 0 1 37-37h0a37 37 0 0 1 37 37z m-548 116a83 83 0 0 1 101 0 86 86 0 0 1 11 10l2 3a82 82 0 0 1 14 24q1 2 2 4 0 2 1 5a81 81 0 0 1 2 19h0a82 82 0 0 1-27 61l-3 2c-2 2-3 3-5 5a83 83 0 0 1-44 14c-1 0-3 0-4 0s-2 0-3 0a82 82 0 0 1-47-147z m361-5a76 76 0 1 1-77 76 77 77 0 0 1 77-76z m-101-506a16 16 0 0 1-16 17h-7v33a40 40 0 0 1 10 10h0a39 39 0 0 1 7 22h0c0 3-2 290-2 292a95 95 0 0 1-95 93h-40c-5-13-44-115-50-130l12 55a16 16 0 0 1-2 11l-16 29 15 26a6 6 0 0 1 0 6 7 7 0 0 1-5 3h-40a7 7 0 0 1-5-3 6 6 0 0 1 0-6l15-26-17-29a16 16 0 0 1-1-11l10-55c-5 14-43 113-50 130h-29a38 38 0 0 1-28-11l-96-96-64 10v121h75a20 20 0 0 1 19 20v128a20 20 0 0 1-19 20h-205a20 20 0 0 1-20-20v-128a20 20 0 0 1 20-20h75v-112a40 40 0 0 1-11-79l11-2v-24a27 27 0 0 1 55 0v16l72-11a40 40 0 0 1 34 11c16 16 56 55 71 71v-654a48 48 0 0 1 97 0v370a10 10 0 0 0 20 0v-370a48 48 0 0 1 96 0h0v82a59 59 0 0 0-33 54v157a60 60 0 0 0 33 54c0 0 0 255-1 319a8 8 0 0 0 17 1h0l2-292a39 39 0 0 1 6-22h0a40 40 0 0 1 10-10v-33h-6a16 16 0 0 1-17-17v-157a16 16 0 0 1 17-17h60a16 16 0 0 1 16 17v157z" horiz-adv-x="933" />

<glyph glyph-name="man-pedestal" unicode="&#xe82b;" d="M505 850a61 61 0 1 0-61-61 61 61 0 0 0 61 61z m-327-86a61 61 0 1 0-61-61 61 61 0 0 0 61 61z m661-89a61 61 0 1 0-61-61 61 61 0 0 0 61 61z m161-738h-103a35 35 0 0 1 19 32v60a44 44 0 0 0-23 39v117a44 44 0 0 0 23 39c0 56 0-1 0 239a6 6 0 1 0 12 1l1-217a30 30 0 0 1 13-24v-26h-5a12 12 0 0 1-12-12v-117a12 12 0 0 1 12-12h44a12 12 0 0 1 12 12v117a12 12 0 0 1-12 12h-5v27a30 30 0 0 1 12 24l-1 216a70 70 0 0 1-70 69h-31c-4-10-31-84-35-95l8 40a12 12 0 0 1-1 9l-12 21 11 19a5 5 0 0 1 0 4 4 4 0 0 1-4 2h-29a4 4 0 0 1-3-2 5 5 0 0 1 0-4l10-19-12-21a12 12 0 0 1-1-9l7-40c-3 9-30 85-34 95h-32a70 70 0 0 1-69-69l-1-216a29 29 0 0 1 29-30h0a29 29 0 0 1 30 29l1 217a6 6 0 0 0 11 0v-495a35 35 0 0 1 20-32h-104v159a15 15 0 0 1-14 15h-103a35 35 0 0 1 24 33v60a44 44 0 0 0-24 40v117a44 44 0 0 0 24 39c0 55-1-1-1 239a6 6 0 0 0 6 6 6 6 0 0 0 6-6l1-216a30 30 0 0 1 13-24v-26h-5a12 12 0 0 1-12-12v-117a12 12 0 0 1 12-13h45a12 12 0 0 1 12 13v117a12 12 0 0 1-12 12h-6v26a30 30 0 0 1 12 24l-1 216a70 70 0 0 1-69 70h-31c-4-11-32-85-36-96l9 41a12 12 0 0 1-2 8l-11 22 10 18a4 4 0 0 1 0 4 4 4 0 0 1-4 3h-28a4 4 0 0 1-4-3 4 4 0 0 1 0-4l10-18-11-22a12 12 0 0 1-2-8l8-41c-4 10-31 85-35 96h-31a70 70 0 0 1-70-70l-1-216a30 30 0 0 1 29-30h1a30 30 0 0 1 29 30l1 216a6 6 0 0 0 11 0v-495a35 35 0 0 1 24-33h-97a15 15 0 0 1-15-15v-72h-108a35 35 0 0 1 26 34v60a45 45 0 0 0-23 39v117a44 44 0 0 0 23 40c0 55 0-1 0 239a6 6 0 0 0 12 0l1-217a29 29 0 0 1 13-24v-25h-5a12 12 0 0 1-12-13v-117a12 12 0 0 1 12-12h44a12 12 0 0 1 12 12v117a12 12 0 0 1-12 13h-5v26a29 29 0 0 1 12 24l-1 216a70 70 0 0 1-70 69h-31c-4-10-32-84-36-95l9 40a12 12 0 0 1-1 9l-12 21 10 19a4 4 0 0 1 0 4 4 4 0 0 1-3 2h-29a4 4 0 0 1-4-2 4 4 0 0 1 0-4l11-19-12-21a12 12 0 0 1-1-8l7-41c-4 10-30 85-34 95h-32a70 70 0 0 1-69-69l-2-216a29 29 0 0 1 30-30h0a29 29 0 0 1 29 29l1 217a6 6 0 0 0 12 0v-495a35 35 0 0 1 26-34h-111a15 15 0 0 1-15-15v-144a15 15 0 0 1 15-15h985a15 15 0 0 1 15 15v57a15 15 0 0 1-15 15z m-830 121v275a8 8 0 0 0 15 0v-275a35 35 0 0 1 26-34h-67a35 35 0 0 1 26 34z m327 86v275a8 8 0 1 0 15 0v-275a35 35 0 0 1 24-33h-63a35 35 0 0 1 24 33z m334-175v274a8 8 0 1 0 15 0v-274a35 35 0 0 1 20-32h-55a35 35 0 0 1 20 32z" horiz-adv-x="1014" />

<glyph glyph-name="man-lawyer" unicode="&#xe82c;" d="M671-33l0-66a51 51 0 0 1 52-51h0a51 51 0 0 1 52 51l0 66h-104z m-126 13v-79a51 51 0 0 1 51-51h0a51 51 0 0 1 52 51v66h-66a61 61 0 0 0-37 13z m-429 870a88 88 0 1 0-90-88 89 89 0 0 0 90 88z m222-359l-135 16-89 86 84-43 31-4v38a60 60 0 0 1-60 60h-108a60 60 0 0 1-60-60l-1-683a51 51 0 0 1 52-51h0a51 51 0 0 1 51 51l1 377v1h23l0-378a52 52 0 0 1 103 0c0 454-1 474-1 474l-56 7c-17 2-38 1-51 24l-68 127 99-97a43 43 0 0 1 25-12l150-18a43 43 0 1 1 10 85z m321 359a88 88 0 1 0-89-88 89 89 0 0 0 89 88z m161-653h-45v63a22 22 0 0 1-22 21h-7c3 15 19 117 22 133a42 42 0 0 1-2 21l-51 142 3-5 56-82v94a60 60 0 0 1-61 60h-107a60 60 0 0 1-60-60v-15l-138-78a85 85 0 0 0-23-110 59 59 0 0 1 6 3l155 87-1-251a65 65 0 0 0 45 13v27a59 59 0 0 0 34 53l20 120-8 89-2 27 47-133c-2-14-20-119-22-135h-10a22 22 0 0 1-22-21v-63h-45a23 23 0 0 1-23-23v-148a23 23 0 0 1 23-23h238a23 23 0 0 1 23 23v148a23 23 0 0 1-23 23z m-127 28a59 59 0 0 1 7 0 44 44 0 0 1 26 8h5v-36h-60v36h3a46 46 0 0 1 19-8z" horiz-adv-x="843" />

<glyph glyph-name="man-smart" unicode="&#xe82d;" d="M82-108c0-28 14-42 42-42s41 14 41 42v391h42v-391c0-28 14-42 41-42s42 14 42 42v658h20v-243a36 36 0 0 1 15-32 27 27 0 0 1 31 0 35 35 0 0 1 16 32v251a93 93 0 0 1-28 70 106 106 0 0 1-77 27h-162a109 109 0 0 1-76-26 88 88 0 0 1-29-69v-255a29 29 0 0 1 16-28 32 32 0 0 1 31 0 29 29 0 0 1 15 28v245h20v-658h0z m17 872a86 86 0 0 1 85-85 79 79 0 0 1 59 25 88 88 0 0 1 0 121 79 79 0 0 1-59 25 86 86 0 0 1-85-86h0z m613-343a110 110 0 1 1 110-110 110 110 0 0 1-110 110z m77-126h-93v96h32v-65h61v-31z m-77 188a174 174 0 0 1-168-129h-88a30 30 0 0 1-31-30v-444a30 30 0 0 1 31-30h249a30 30 0 0 1 30 30v257a174 174 0 0 1-23 346z m-13-554h-237v389h76c0-3 0-6 0-9a174 174 0 0 1 62-132h-96v-25h135a169 169 0 0 1 60-16v-207h0z m13 232a150 150 0 1 0 150 150 150 150 0 0 0-150-150z m-208-45h135v-25h-135v25z m0-61h177v-25h-177v25z" horiz-adv-x="886" />

<glyph glyph-name="man-lamp" unicode="&#xe82e;" d="M161 693a70 70 0 0 0 82 12 82 82 0 1 1-82-12z m134-350l-57-24a70 70 0 0 0-92 36 71 71 0 0 0-5 19 70 70 0 0 0-55 18v-495a47 47 0 0 1 95 0v367a10 10 0 0 0 20 0v-367a47 47 0 0 1 95 0c0 401-1 446-1 446z m-154 62a39 39 0 0 1 30 24l76 200a39 39 0 0 1-74 28l-52-137c-15 17-29 35-38 47a4 4 0 0 0 3 6h28l29 78h-57c-57 0-102-52-82-106 9-22 85-110 100-128a40 40 0 0 1 37-12z m250 154h0a94 94 0 0 1-94 92h-17a69 69 0 0 0-4-33c-8-19-54-138-61-157l80 34v64a8 8 0 0 0 17 0v-1c0-31 0-56 0-89-13-6-105-45-117-50a39 39 0 1 1 31-72l142 60a39 39 0 0 1 23 37c0 73 0 41 0 115z m284 267c-117 0-211-87-211-194a182 182 0 0 1 20-83c25-49 49-51 75-102a198 198 0 0 0 21-89v-6a60 60 0 0 0-7-93 33 33 0 0 1 33-33h23a47 47 0 0 1 92 0h23a85 85 0 0 0 43 96 32 32 0 0 1-18 30v6a198 198 0 0 0 19 83c19 41 39 54 56 75a184 184 0 0 1 41 116c0 107-94 194-210 194z m29-223v-153h-59v153a30 30 0 0 0 59 0z" horiz-adv-x="885" />

<glyph glyph-name="phone-black" unicode="&#xe82f;" d="M998 75a124 124 0 0 1-54 38c-9 5-22 12-38 21s-32 17-45 25-27 15-38 22c-2 1-8 6-18 13s-18 11-25 15a52 52 0 0 1-21 5 58 58 0 0 1-35-20 349 349 0 0 1-39-45 424 424 0 0 0-38-44 53 53 0 0 0-32-20 48 48 0 0 0-16 4 135 135 0 0 0-15 6 195 195 0 0 0-17 10c-8 4-12 7-13 8a703 703 0 0 0-291 291c0 0-3 5-8 13a152 152 0 0 0-10 17 96 96 0 0 0-6 14 49 49 0 0 0-3 17 54 54 0 0 0 20 32 385 385 0 0 0 44 38 346 346 0 0 1 44 39 61 61 0 0 1 20 35 45 45 0 0 1-5 20 186 186 0 0 1-15 26c-7 10-11 16-12 17-8 12-15 25-22 39s-16 28-25 45-16 29-22 38a125 125 0 0 1-37 54 48 48 0 0 1-15 2 235 235 0 0 1-50-7 275 275 0 0 1-49-15 190 190 0 0 1-75-87 262 262 0 0 1-34-169 313 313 0 0 1 9-41q6-23 10-33c3-8 8-21 15-40s11-30 12-35a656 656 0 0 1 59-124 1056 1056 0 0 1 153-188 1067 1067 0 0 1 188-153 660 660 0 0 1 124-59c5-1 16-6 35-13s32-12 40-14a331 331 0 0 1 33-11 354 354 0 0 1 42-9 258 258 0 0 1 37-2 275 275 0 0 1 132 36 191 191 0 0 1 87 75 301 301 0 0 1 15 49 240 240 0 0 1 7 50 40 40 0 0 1-3 15z" horiz-adv-x="1000" />

<glyph glyph-name="email-black" unicode="&#xe830;" d="M126 542c16-11 66-45 149-101s147-99 191-130c5-3 16-10 31-22s29-20 40-27 23-14 38-23a251 251 0 0 1 41-19 109 109 0 0 1 37-6h1a109 109 0 0 1 37 6 251 251 0 0 1 42 19q22 13 38 23c10 7 23 17 39 27s26 19 31 22q67 46 342 231a356 356 0 0 1 89 87 184 184 0 0 1 35 107 108 108 0 0 1-34 81 114 114 0 0 1-82 33h-1074a105 105 0 0 1-87-37 141 141 0 0 1-30-92 163 163 0 0 1 40-97 364 364 0 0 1 86-82z m1109-76q-240-158-364-245c-27-20-50-36-67-47a447 447 0 0 0-69-34 215 215 0 0 0-81-17h-1a215 215 0 0 0-80 17 451 451 0 0 0-70 34c-17 11-39 27-67 47q-99 70-363 245a377 377 0 0 0-74 62v-564a109 109 0 0 1 35-81 113 113 0 0 1 82-33h1074a114 114 0 0 1 83 33 109 109 0 0 1 34 81v564a384 384 0 0 0-72-62z" horiz-adv-x="1308" />

<glyph glyph-name="star" unicode="&#xe831;" d="M563 834l137-316 351-29a27 27 0 0 0 15-47l-265-225 79-334a27 27 0 0 0-41-29l-301 177-301-177a27 27 0 0 0-41 29l80 334-267 225a27 27 0 0 0 16 47l351 30 137 316a28 28 0 0 0 50-1z" horiz-adv-x="1074" />

<glyph glyph-name="check" unicode="&#xe832;" d="M1167 694l-131 143a38 38 0 0 1-57 0l-548-596-234 254a38 38 0 0 1-56 0l-132-143a46 46 0 0 1 0-62l393-427a40 40 0 0 1 29-13 39 39 0 0 1 28 13l708 770a46 46 0 0 1 0 61z" horiz-adv-x="1179" />

<glyph glyph-name="comment" unicode="&#xe833;" d="M717 171a432 432 0 0 1 173 133 293 293 0 0 1 0 365 432 432 0 0 1-173 132 614 614 0 0 1-479 0 432 432 0 0 1-174-132 295 295 0 0 1-64-183 289 289 0 0 1 48-159 405 405 0 0 1 132-125c-4-12-9-22-14-32a177 177 0 0 0-17-27l-15-21a249 249 0 0 0-17-20c-9-9-14-15-16-18a6 6 0 0 1-3-3 10 10 0 0 0-3-4 7 7 0 0 1-2-4l-3-3-2-4a14 14 0 0 1-1-4 31 31 0 0 1 0-5 14 14 0 0 1 1-4 24 24 0 0 1 8-15 21 21 0 0 1 13-6h3a536 536 0 0 1 58 11 557 557 0 0 1 188 91 645 645 0 0 1 119-11 585 585 0 0 1 240 48z m449-26a288 288 0 0 1-3 323 407 407 0 0 1-138 126 383 383 0 0 0 16-108 378 378 0 0 0-46-180 468 468 0 0 0-130-150 590 590 0 0 0-178-92 686 686 0 0 0-210-32c-13 0-33 1-59 3a551 551 0 0 1 320-94 651 651 0 0 1 119 11 558 558 0 0 1 188-91 552 552 0 0 1 59-11 20 20 0 0 1 14 5 27 27 0 0 1 9 16 5 5 0 0 0 1 4c1 0 0 2 0 5l-1 4-2 4c-1 1-1 2-3 4a28 28 0 0 1-2 3l-3 4c-2 1-3 2-3 3-2 3-7 9-16 18s-14 16-17 21-9 11-15 20a179 179 0 0 0-17 28q-8 14-14 31a404 404 0 0 1 131 125z" horiz-adv-x="1214" />

<glyph glyph-name="print" unicode="&#xe834;" d="M1080 397a127 127 0 0 1-91 36h-43v167a149 149 0 0 1-14 57 152 152 0 0 1-32 50l-102 99a156 156 0 0 1-51 31 160 160 0 0 1-59 13h-451a64 64 0 0 1-46-18 60 60 0 0 1-19-44v-355h-43a127 127 0 0 1-91-36 118 118 0 0 1-38-89v-270a20 20 0 0 1 7-15 21 21 0 0 1 14-6h151v-105a60 60 0 0 1 19-44 64 64 0 0 1 46-18h644a64 64 0 0 1 46 18 60 60 0 0 1 19 44v105h151a21 21 0 0 1 14 6 20 20 0 0 1 7 15v270a118 118 0 0 1-38 89z m-220-464h-602v167h602v-167z m0 417h-602v417h430v-104a60 60 0 0 1 19-45 64 64 0 0 1 45-18h108v-250z m159-71a41 41 0 0 0-30-12 43 43 0 0 0-31 12 41 41 0 0 0 0 59 43 43 0 0 0 31 12 41 41 0 0 0 30-12 40 40 0 0 0 0-59z" horiz-adv-x="1118" />

<glyph glyph-name="cancel" unicode="&#xe835;" d="M729 350l247 248a81 81 0 0 1 0 114l-114 114a82 82 0 0 1-115 0l-247-247-247 247a82 82 0 0 1-115 0l-114-114a81 81 0 0 1 0-114l247-248-247-247a81 81 0 0 1 0-115l114-114a81 81 0 0 1 115 0l247 247 247-247a81 81 0 0 1 115 0l114 114a81 81 0 0 1 0 115z" horiz-adv-x="1000" />

<glyph glyph-name="distance" unicode="&#xe836;" d="M997 846a19 19 0 0 1-22 5l-964-453a20 20 0 0 1-11-21 20 20 0 0 1 16-17l432-74 50-418a20 20 0 0 1 16-18 15 15 0 0 1 3 0 19 19 0 0 1 17 11l467 963a20 20 0 0 1-4 22z" horiz-adv-x="1002" />

<glyph glyph-name="triangle-right" unicode="&#xe837;" d="M21 831a57 57 0 0 1-21-43v-876a57 57 0 0 1 21-43 73 73 0 0 1 97 0l486 437a57 57 0 0 1 0 88l-486 437a73 73 0 0 1-97 0z" horiz-adv-x="625" />

<glyph glyph-name="menu-1" unicode="&#xf008;" d="M68 62q0-30 21-51t51-21h793q30 0 51 21t21 51-21 51-51 21h-793q-29 0-51-21t-21-51z m0 288q0-30 21-51t51-21h793q30 0 51 21t21 51-21 51-51 21h-793q-29 0-51-21t-21-51z m0 288q0-30 21-51t51-21h793q30 0 51 21t21 51-21 51-51 21h-793q-29 0-51-21t-21-51z" horiz-adv-x="1073.2" />

<glyph glyph-name="gplus" unicode="&#xf05a;" d="M0 57q0-39 17-68 30-55 105-82 63-26 136-26t133 20 100 52 60 74 22 87q0 63-34 108-26 36-69 68-15 11-32 28-34 28-34 55 0 32 45 73 15 13 37 36 19 21 32 54t12 72q0 51-22 96t-62 70h76l76 44h-246q-53 0-106-10-78-18-131-81t-53-141q0-82 59-138t145-55q8 0 39 3-2-6-9-24-4-11-4-25 0-38 36-84-37 0-84-7-110-18-169-60-34-25-55-64t-20-75z m104 26q0 34 16 61 27 47 94 68 58 18 120 18 9 0 28-2 1 0 16-11t20-13q14-9 36-27 1-2 9-9t13-12 8-10q2-2 3-5t4-6 5-7q6-9 10-19 7-24 7-43 0-35-15-61t-42-42q-50-30-120-30-76 0-139 35-33 17-53 47t-20 68z m61 563q0 57 30 94t81 38q36 0 66-22t48-60q36-74 36-145 0-59-26-91t-77-33q-28 0-55 15-45 25-76 90-27 57-27 114z m412-43h144v-145h72v145h144v72h-144v143h-72v-143h-144v-72z" horiz-adv-x="937.5" />

<glyph glyph-name="twitter" unicode="&#xf099;" d="M904 622q-37-54-90-93 0-8 0-23 0-73-21-145t-64-139-103-117-144-82-181-30q-151 0-276 81 19-2 43-2 126 0 224 77-59 1-105 36t-64 89q19-3 34-3 24 0 48 6-63 13-104 62t-41 115v2q38-21 82-23-37 25-59 64t-22 86q0 49 25 91 68-83 164-133t208-55q-5 21-5 41 0 75 53 127t127 53q79 0 132-57 61 12 115 44-21-64-80-100 52 6 104 28z" horiz-adv-x="928.6" />

<glyph glyph-name="facebook" unicode="&#xf09a;" d="M535 843v-147h-87q-48 0-65-20t-17-60v-106h164l-22-165h-142v-424h-171v424h-142v165h142v122q0 104 58 161t155 57q82 0 127-7z" horiz-adv-x="571.4" />

<glyph glyph-name="menu" unicode="&#xf0c9;" d="M857 100v-71q0-15-10-25t-26-11h-785q-15 0-25 11t-11 25v71q0 15 11 25t25 11h785q15 0 26-11t10-25z m0 286v-72q0-14-10-25t-26-10h-785q-15 0-25 10t-11 25v72q0 14 11 25t25 10h785q15 0 26-10t10-25z m0 285v-71q0-14-10-25t-26-11h-785q-15 0-25 11t-11 25v71q0 15 11 26t25 10h785q15 0 26-10t10-26z" horiz-adv-x="857.1" />

<glyph glyph-name="star-half-alt" unicode="&#xf123;" d="M662 316l143 140-198 29-37 5-17 34-89 179v-537l33-17 178-94-34 198-6 37z m252 146l-202-197 48-279q2-19-4-29t-19-11q-9 0-22 7l-251 132-250-132q-13-7-23-7-12 0-19 11t-3 29l48 279-203 197q-18 18-13 33t30 20l280 40 126 254q11 23 27 23 16 0 28-23l125-254 280-40q25-4 31-20t-14-33z" horiz-adv-x="928.6" />

<glyph glyph-name="rouble" unicode="&#xf158;" d="M582 535q0 56-36 90t-96 35h-178v-250h178q60 0 96 34t36 91z m132 0q0-108-70-176t-182-68h-190v-66h282q7 0 12-5t5-13v-71q0-8-5-13t-12-5h-282v-107q0-8-5-13t-13-5h-93q-8 0-13 5t-5 13v107h-125q-8 0-13 5t-5 13v71q0 8 5 13t13 5h125v66h-125q-8 0-13 5t-5 13v83q0 7 5 12t13 6h125v351q0 8 5 13t13 5h301q111 0 182-68t70-176z" horiz-adv-x="714.3" />

<glyph glyph-name="you" unicode="&#xf167;" d="M542 156v-118q0-37-22-37-13 0-25 12v168q12 12 25 12 22 0 22-37z m189-1v-25h-51v25q0 38 25 38t26-38z m-540 122h60v52h-174v-52h59v-318h55v318z m161-318h50v276h-50v-211q-17-23-32-23-10 0-11 11-1 2-1 20v203h-50v-218q0-28 5-41 7-21 32-21 27 0 57 34v-30z m240 83v110q0 41-5 55-10 31-40 31-28 0-52-30v121h-50v-370h50v27q25-31 52-31 30 0 40 31 5 15 5 56z m188 6v7h-51q0-29-1-34-4-20-22-20-26 0-26 38v49h100v57q0 44-15 65-22 28-59 28-38 0-60-28-15-21-15-65v-96q0-44 16-65 22-29 60-29 40 0 60 30 10 15 12 30 1 5 1 33z m-339 509v117q0 39-24 39t-24-39v-117q0-39 24-39t24 39z m401-419q0-131-14-195-8-33-33-56t-57-25q-102-12-309-12t-310 12q-32 3-57 25t-32 56q-15 62-15 195 0 131 15 195 7 33 32 56t57 26q103 11 310 11t309-11q33-4 58-26t32-56q14-62 14-195z m-557 712h57l-67-223v-151h-56v151q-8 42-34 119-21 57-37 104h60l39-147z m207-186v-97q0-46-16-66-21-29-59-29-37 0-59 29-15 21-15 66v97q0 45 15 66 22 28 59 28 38 0 59-28 16-21 16-66z m187 91v-279h-51v31q-30-35-58-35-25 0-33 21-4 13-4 42v220h51v-205q0-19 0-20 2-12 12-12 15 0 32 24v213h51z" horiz-adv-x="857.1" />

<glyph glyph-name="vk" unicode="&#xf189;" d="M1070 560q13-36-84-164-13-18-36-48-44-55-50-73-10-23 7-45 10-12 46-46h0l1 0 0-1 1-1q79-73 107-123 2-3 4-7t4-15-1-19-14-15-33-7l-142-3q-14-2-32 3t-29 13l-11 6q-17 12-39 36t-38 43-34 33-32 8q-1 0-4-2t-10-8-12-16-9-29-4-44q0-8-2-15t-4-10l-2-3q-10-11-30-12h-64q-40-3-81 9t-74 29-57 37-40 32l-14 14q-5 5-15 17t-40 50-59 85-68 117-73 152q-4 9-4 15t2 9l2 3q9 11 32 11l153 1q7-1 13-3t9-5l3-2q9-6 13-18 11-28 26-57t23-46l9-16q16-34 31-58t27-38 23-22 19-8 15 3q1 1 3 3t7 12 7 26 5 46 0 69q-1 23-5 41t-7 26l-4 6q-14 19-47 24-8 2 3 14 9 10 21 17 29 14 133 13 46-1 75-7 12-3 19-8t12-13 5-18 2-25 0-31-2-40 0-46q0-6-1-23t0-27 2-22 6-22 13-14q4-1 9-2t15 6 21 19 29 38 38 60q33 58 60 125 2 6 5 10t6 6l3 2 2 1t8 2 11 0l160 1q22 3 36-1t17-10z" horiz-adv-x="1071.4" />

<glyph glyph-name="in" unicode="&#xf32d;" d="M690 350q0 26-6 50l176 0 0-344q0-56-39-96t-95-40l-592 0q-56 0-95 40t-39 96l0 344 174 0q-4-32-4-50 0-106 76-183t184-77q106 0 183 77t77 183z m36 430q56 0 95-39t39-95l0-146-218 0q-78 110-212 110-138 0-212-110l-218 0 0 146q0 56 39 95t95 39l592 0z m64-166l0 72q0 24-24 24l-72 0q-24 0-24-24l0-72q0-8 7-16t17-8l72 0q24 0 24 24z m-200-264q0-66-47-113t-113-47-113 47-47 113q0 68 47 114t113 46 113-46 47-114z" horiz-adv-x="860" />
</font>
</defs>
</svg>
