<?xml version="1.0" encoding="utf-8"?>
<!-- Generator: Adobe Illustrator 19.0.1, SVG Export Plug-In . SVG Version: 6.00 Build 0)  -->
<svg version="1.1" id="Слой_1" xmlns="http://www.w3.org/2000/svg" xmlns:xlink="http://www.w3.org/1999/xlink" x="0px" y="0px"
	 viewBox="-148.1 243 10 16" style="enable-background:new -148.1 243 10 16;" xml:space="preserve">
<style type="text/css">
	.st0{fill:#F7F7F7;}
</style>
<path id="Forma_1_копия_10_1_" class="st0" d="M-143.1,243c1.3,0,2.6,0.5,3.5,1.5c0.9,0.9,1.5,2.2,1.5,3.6
	c0,1.4-0.9,3.1-1.7,4.6c-0.2,0.5-0.5,0.9-0.7,1.3l-2.3,4.8c-0.1,0.2-0.3,0.3-0.5,0.2c0,0,0,0,0,0c-0.1,0-0.1-0.1-0.2-0.2l0,0
	l-2.3-4.8c-0.2-0.4-0.4-0.8-0.6-1.3c-0.8-1.5-1.7-3.2-1.7-4.6c0-1.3,0.5-2.6,1.5-3.6C-145.7,243.5-144.5,243-143.1,243L-143.1,243
	L-143.1,243z M-143.1,245.6c0.6,0,1.3,0.3,1.7,0.7c1,1,1,2.5,0,3.5c-0.5,0.5-1.1,0.7-1.7,0.7c-1.4,0-2.5-1.1-2.5-2.5
	C-145.6,246.7-144.5,245.6-143.1,245.6L-143.1,245.6L-143.1,245.6z M-142,246.9c-0.6-0.6-1.7-0.7-2.3,0c0,0,0,0,0,0
	c-0.6,0.7-0.6,1.7,0,2.3c0.6,0.6,1.7,0.7,2.3,0c0,0,0,0,0,0C-141.3,248.6-141.3,247.5-142,246.9L-142,246.9z M-141.4,246.4
	c-1.7-0.6-1.7-0.7-3.5-0.1c0,0,0.2,0,0.2,0c-0.8,0.8-0.3,0.5-0.3,1.7c0,1.2,2.7,3.3,2.7,2c0.8-0.8,2-2.1,1.2-2.9L-141.4,246.4z"/>
<path id="Forma_1_копия_10" d="M-143.1,243c1.3,0,2.6,0.5,3.5,1.5c0.9,0.9,1.5,2.2,1.5,3.6c0,1.4-0.9,3.1-1.7,4.6
	c-0.2,0.5-0.5,0.9-0.7,1.3l-2.3,4.8c-0.1,0.2-0.3,0.3-0.5,0.2c0,0,0,0,0,0c-0.1,0-0.1-0.1-0.2-0.2l0,0l-2.3-4.8
	c-0.2-0.4-0.4-0.8-0.6-1.3c-0.8-1.5-1.7-3.2-1.7-4.6c0-1.3,0.5-2.6,1.5-3.6C-145.7,243.5-144.5,243-143.1,243L-143.1,243L-143.1,243
	z M-143.1,245.6c0.6,0,1.3,0.3,1.7,0.7c1,1,1,2.5,0,3.5c-0.5,0.5-1.1,0.7-1.7,0.7c-1.4,0-2.5-1.1-2.5-2.5
	C-145.6,246.7-144.5,245.6-143.1,245.6L-143.1,245.6L-143.1,245.6z M-142,246.9c-0.6-0.6-1.7-0.7-2.3,0c0,0,0,0,0,0
	c-0.6,0.7-0.6,1.7,0,2.3c0.6,0.6,1.7,0.7,2.3,0c0,0,0,0,0,0C-141.3,248.6-141.3,247.5-142,246.9L-142,246.9z M-140.2,245.1
	c-1.6-1.6-4.2-1.7-5.9-0.1c0,0,0,0-0.1,0.1c-0.8,0.8-1.2,1.9-1.2,3c0,1.2,0.8,2.8,1.6,4.2c0.2,0.5,0.5,0.9,0.7,1.3l1.9,4.1l1.9-4.1
	c0.2-0.4,0.4-0.8,0.7-1.3c0.7-1.4,1.6-3,1.6-4.2C-138.9,246.9-139.4,245.9-140.2,245.1L-140.2,245.1z"/>
</svg>
