<svg xmlns="http://www.w3.org/2000/svg" width="70" height="124" viewBox="0 0 70 124"><defs><style>.cls-1{fill:#f76767;fill-rule:evenodd;filter:url(#filter)}</style><filter id="filter" x="1325" y="2949" width="70" height="124" filterUnits="userSpaceOnUse"><feFlood result="flood" flood-color="#fff"/><feComposite result="composite" operator="in" in2="SourceGraphic"/><feBlend result="blend" in2="SourceGraphic"/></filter></defs><path id="Forma_1" data-name="Forma 1" class="cls-1" d="M1385.37 2949h-50.74a9.618 9.618 0 0 0-9.63 9.58v104.83a9.62 9.62 0 0 0 9.63 9.59h50.74a9.62 9.62 0 0 0 9.63-9.59v-104.83a9.618 9.618 0 0 0-9.63-9.58zm-56.71 19.17h62.68v85.66h-62.68v-85.66zm5.97-15.53h50.74a5.966 5.966 0 0 1 5.97 5.94v5.95h-62.68v-5.95a5.966 5.966 0 0 1 5.97-5.94zm50.74 116.72h-50.74a5.969 5.969 0 0 1-5.97-5.95v-5.94h62.68v5.94a5.969 5.969 0 0 1-5.97 5.95zm-29.27-108.96h7.8a1.815 1.815 0 1 0 0-3.63h-7.8a1.815 1.815 0 1 0 0 3.63zm-5.86 0a1.838 1.838 0 0 0 1.3-.53 1.823 1.823 0 0 0 0-2.57 1.824 1.824 0 1 0-1.3 3.1zm9.76 99.25a3.765 3.765 0 1 0 3.78 3.76 3.779 3.779 0 0 0-3.78-3.76zm0 3.89a.124.124 0 0 1-.12-.13.12.12 0 0 1 .24 0 .124.124 0 0 1-.12.13zm25.37-91.24h-50.74a1.822 1.822 0 0 0-1.83 1.82v11.64a1.822 1.822 0 0 0 1.83 1.82h50.74a1.814 1.814 0 0 0 1.82-1.82v-11.64a1.814 1.814 0 0 0-1.82-1.82zm-1.83 11.64h-47.08v-8h47.08v8zm1.83 9.71h-50.74a1.82 1.82 0 1 0 0 3.64h50.74a1.82 1.82 0 1 0 0-3.64zm-5.86 11.4a1.82 1.82 0 1 0 0-3.64h-39.02a1.82 1.82 0 1 0 0 3.64h39.02zm5.86 8.01h-35.13a1.82 1.82 0 1 0 0 3.64h35.13a1.82 1.82 0 1 0 0-3.64zm-46.83-3.88a5.7 5.7 0 1 0 5.73 5.7 5.732 5.732 0 0 0-5.73-5.7zm0 7.77a2.065 2.065 0 1 1 2.07-2.07 2.076 2.076 0 0 1-2.07 2.07zm46.83 9.7h-35.13a1.82 1.82 0 1 0 0 3.64h35.13a1.82 1.82 0 1 0 0-3.64zm-46.83-3.88a5.7 5.7 0 1 0 5.73 5.7 5.732 5.732 0 0 0-5.73-5.7zm0 7.76a2.06 2.06 0 1 1 2.07-2.06 2.068 2.068 0 0 1-2.07 2.06zm46.83 9.71h-35.13a1.82 1.82 0 1 0 0 3.64h35.13a1.82 1.82 0 0 0 0-3.64zm-46.83-3.88a5.7 5.7 0 1 0 5.73 5.7 5.732 5.732 0 0 0-5.73-5.7zm0 7.76a2.06 2.06 0 1 1 2.07-2.06 2.068 2.068 0 0 1-2.07 2.06z" transform="translate(-1325 -2949)"/></svg>