<svg xmlns="http://www.w3.org/2000/svg" width="70" height="123" viewBox="0 0 70 123"><defs><style>.cls-1{fill:#f76767;fill-rule:evenodd;filter:url(#filter)}</style><filter id="filter" x="525" y="2500" width="70" height="123" filterUnits="userSpaceOnUse"><feFlood result="flood" flood-color="#fff"/><feComposite result="composite" operator="in" in2="SourceGraphic"/><feBlend result="blend" in2="SourceGraphic"/></filter></defs><path id="Forma_1" data-name="Forma 1" class="cls-1" d="M585.931 2500h-51.862a9.059 9.059 0 0 0-9.069 9.03v104.94a9.059 9.059 0 0 0 9.069 9.03h51.86a9.059 9.059 0 0 0 9.071-9.03v-104.94a9.059 9.059 0 0 0-9.069-9.03zm-56.813 16.4h61.764v77.9h-61.764v-77.9zm4.951-12.3h51.86a4.946 4.946 0 0 1 4.953 4.93v3.27h-61.764v-3.27a4.945 4.945 0 0 1 4.951-4.93zm51.862 114.8h-51.862a4.945 4.945 0 0 1-4.951-4.93v-15.57h61.764v15.57a4.945 4.945 0 0 1-4.951 4.93zM560 2600.45a8.2 8.2 0 1 0 8.235 8.2 8.227 8.227 0 0 0-8.235-8.2zm0 12.3a4.1 4.1 0 1 1 4.118-4.1 4.114 4.114 0 0 1-4.118 4.1zm-8.235-102.5H560a2.05 2.05 0 1 0 0-4.1h-8.235a2.05 2.05 0 1 0 0 4.1zm14.411 0h2.059a2.05 2.05 0 1 0 0-4.1h-2.059a2.05 2.05 0 1 0 0 4.1zm-2.137 12.34h-8.078a4.189 4.189 0 0 0-4.2 4.18v8.04a4.189 4.189 0 0 0 4.2 4.18h8.078a4.189 4.189 0 0 0 4.2-4.18v-8.04a4.189 4.189 0 0 0-4.2-4.18zm.079 12.22a.082.082 0 0 1-.079.08l-8.157-.08.079-8.12 8.157.08v8.04zm-18.608-12.22h-8.079a4.189 4.189 0 0 0-4.2 4.18v8.04a4.189 4.189 0 0 0 4.2 4.18h8.079a4.189 4.189 0 0 0 4.2-4.18v-8.04a4.189 4.189 0 0 0-4.2-4.18zm.078 12.22a.082.082 0 0 1-.078.08l-8.157-.08.078-8.12 8.157.08v8.04zm36.981-12.22h-8.079a4.189 4.189 0 0 0-4.2 4.18v8.04a4.189 4.189 0 0 0 4.2 4.18h8.079a4.189 4.189 0 0 0 4.2-4.18v-8.04a4.189 4.189 0 0 0-4.2-4.18zm.078 12.22a.082.082 0 0 1-.078.08l-8.157-.08.078-8.12 8.157.08v8.04zm-18.608 6.19h-8.078a4.189 4.189 0 0 0-4.2 4.18v8.04a4.189 4.189 0 0 0 4.2 4.18h8.078a4.189 4.189 0 0 0 4.2-4.18v-8.04a4.189 4.189 0 0 0-4.2-4.18zm.079 12.22a.082.082 0 0 1-.079.08l-8.157-.08.079-8.12 8.157.08v8.04zM545.51 2541h-8.079a4.189 4.189 0 0 0-4.2 4.18v8.04a4.189 4.189 0 0 0 4.2 4.18h8.079a4.189 4.189 0 0 0 4.2-4.18v-8.04a4.189 4.189 0 0 0-4.2-4.18zm.078 12.22a.082.082 0 0 1-.078.08l-8.157-.08.078-8.12 8.157.08v8.04zm36.981-12.22h-8.079a4.189 4.189 0 0 0-4.2 4.18v8.04a4.189 4.189 0 0 0 4.2 4.18h8.079a4.189 4.189 0 0 0 4.2-4.18v-8.04a4.189 4.189 0 0 0-4.2-4.18zm.078 12.22a.082.082 0 0 1-.078.08l-8.157-.08.078-8.12 8.157.08v8.04zm-18.608 6.23h-8.078a4.189 4.189 0 0 0-4.2 4.18v8.04a4.189 4.189 0 0 0 4.2 4.18h8.078a4.189 4.189 0 0 0 4.2-4.18v-8.04a4.189 4.189 0 0 0-4.2-4.18zm.079 12.22a.082.082 0 0 1-.079.08l-8.157-.08.079-8.12 8.157.08v8.04zm-18.608-12.22h-8.079a4.189 4.189 0 0 0-4.2 4.18v8.04a4.189 4.189 0 0 0 4.2 4.18h8.079a4.189 4.189 0 0 0 4.2-4.18v-8.04a4.189 4.189 0 0 0-4.2-4.18zm.078 12.22a.082.082 0 0 1-.078.08l-8.157-.08.078-8.12 8.157.08v8.04zm36.981-12.22h-8.079a4.189 4.189 0 0 0-4.2 4.18v8.04a4.189 4.189 0 0 0 4.2 4.18h8.079a4.189 4.189 0 0 0 4.2-4.18v-8.04a4.189 4.189 0 0 0-4.2-4.18zm.078 12.22a.082.082 0 0 1-.078.08l-8.157-.08.078-8.12 8.157.08v8.04z" transform="translate(-525 -2500)"/></svg>