<svg xmlns="http://www.w3.org/2000/svg" width="70" height="125" viewBox="0 0 70 125"><defs><style>.cls-1{fill:#f76767;fill-rule:evenodd;filter:url(#filter)}</style><filter id="filter" x="1325" y="2500" width="70" height="125" filterUnits="userSpaceOnUse"><feFlood result="flood" flood-color="#fff"/><feComposite result="composite" operator="in" in2="SourceGraphic"/><feBlend result="blend" in2="SourceGraphic"/></filter></defs><path id="Forma_1" data-name="Forma 1" class="cls-1" d="M1356.1 2511.5h7.8a1.835 1.835 0 0 0 0-3.67h-7.8a1.835 1.835 0 0 0 0 3.67zm-5.86 0a1.865 1.865 0 0 0 1.3-.54 1.835 1.835 0 0 0-1.3-3.13 1.8 1.8 0 0 0-1.29.54 1.835 1.835 0 0 0 1.29 3.13zm9.76 100.05a3.79 3.79 0 1 0 3.78 3.79 3.792 3.792 0 0 0-3.78-3.79zm0 3.91a.12.12 0 1 1 .12-.12.116.116 0 0 1-.12.12zm35-76.44v-29.36a9.654 9.654 0 0 0-9.63-9.66h-50.74a9.654 9.654 0 0 0-9.63 9.66v105.68a9.654 9.654 0 0 0 9.63 9.66h50.74a9.654 9.654 0 0 0 9.63-9.66v-76.32zm-9.76-5.36l5.27 5.28a4.018 4.018 0 0 1-5.27-3.84v-1.44zm0-5.19v-4.59l6.1 6.11v4.6zm6.1-3.67l-5.46-5.48h5.46v5.48zm-9.75-5.35v15.65a4.025 4.025 0 1 1-8.05 0v-15.65c0-.04-.01-.08-.01-.13h8.06v.13zm-11.71 15.65a3.991 3.991 0 0 1-.2 1.25l-7.85-7.88v-4.59l8.05 8.07v3.15zm-8.05-1.44l5.26 5.28a3.883 3.883 0 0 1-1.24.2 4.031 4.031 0 0 1-4.02-4.04v-1.44zm8.05-14.21v7.31l-7.42-7.44h7.42v.13zm-11.71 0v15.65a4.025 4.025 0 1 1-8.05 0v-15.78h8.06a.615.615 0 0 0-.01.13zm-11.71 15.65a4.3 4.3 0 0 1-.19 1.25l-7.86-7.88v-4.59l8.05 8.07v3.15zm-8.05-1.44l5.27 5.28a3.928 3.928 0 0 1-1.24.2 4.039 4.039 0 0 1-4.03-4.04v-1.44zm8.05-14.21v7.31l-7.41-7.44h7.42c0 .05-.01.09-.01.13zm-11.7 0v15.65a4.035 4.035 0 0 1-4.25 4.03 3.657 3.657 0 0 1-1.85-.62v-19.19h6.1v.13zm-6.1 23.06a7.223 7.223 0 0 0 1.66.29c.14 0 .28.01.42.01a7.578 7.578 0 0 0 5.28-2.12 8.08 8.08 0 0 0 .57-.6 21.1 21.1 0 0 1 17.56 2.72 7.651 7.651 0 0 1 11.7 0 7.662 7.662 0 0 1 11.71 0 7.662 7.662 0 0 1 11.71 0 7.554 7.554 0 0 0 2.07-.29v63.15h-62.68v-63.16zm5.97-38.84h50.74a5.99 5.99 0 0 1 5.97 5.99v6h-62.68v-6a5.99 5.99 0 0 1 5.97-5.99zm50.74 117.66h-50.74a5.99 5.99 0 0 1-5.97-5.99v-6h62.68v6a5.99 5.99 0 0 1-5.97 5.99zm-9.76-62.62h-30.12l-.88-1.75a3.8 3.8 0 0 0-3.42-2.17h-2.65a1.835 1.835 0 0 0 0 3.67h2.65a.123.123 0 0 1 .11.07.488.488 0 0 0 .03.07l9.6 18.9a7.676 7.676 0 0 0 2.64 3.1l-2.4 3.62a5.654 5.654 0 0 0-.93-.07 5.75 5.75 0 1 0 5.43 7.58h10.61a5.745 5.745 0 1 0 0-3.67h-10.61a5.618 5.618 0 0 0-1.26-2.1l2.7-4.06a6.807 6.807 0 0 0 .78.05h11.87a7.708 7.708 0 0 0 7.68-7.71v-13.7a1.831 1.831 0 0 0-1.83-1.83zm-25.37 33.27a2.08 2.08 0 1 1 2.08-2.08 2.083 2.083 0 0 1-2.08 2.08zm21.47-4.16a2.08 2.08 0 1 1-2.08 2.08 2.076 2.076 0 0 1 2.08-2.08zm2.07-13.58a4.037 4.037 0 0 1-4.02 4.04h-11.87a4.024 4.024 0 0 1-3.65-2.35l-.03-.06-6.85-13.49h26.42v11.86z" transform="translate(-1325 -2500)"/></svg>