<svg xmlns="http://www.w3.org/2000/svg" width="74" height="124" viewBox="0 0 74 124"><defs><style>.cls-1{fill:#fff;fill-rule:evenodd}</style></defs><path class="cls-1" d="M74 114.35V9.63A9.6 9.6 0 0 0 64.46 0H9.54A9.6 9.6 0 0 0 0 9.63v104.74A9.6 9.6 0 0 0 9.54 124h54.92a9.633 9.633 0 0 0 9.54-9.65zM6.15 22.32h61.67v70.47H6.15V22.32zM9.54 6.21h54.92a3.406 3.406 0 0 1 3.39 3.42v6.48H6.15V9.63a3.406 3.406 0 0 1 3.39-3.42zM6.15 114.35V98.97h61.67v15.38a3.4 3.4 0 0 1-3.38 3.42H9.54a3.406 3.406 0 0 1-3.39-3.42zm37.08-8.82H30.75a3.115 3.115 0 0 0 0 6.23h12.48a3.115 3.115 0 0 0 0-6.23z"/></svg>