<svg xmlns="http://www.w3.org/2000/svg" width="104" height="113" viewBox="0 0 104 113"><defs><style>.cls-1{fill:#fff;fill-rule:evenodd}</style></defs><path class="cls-1" d="M29.5 74.18h62.08A12.5 12.5 0 0 0 104 61.64v-26.4a2.77 2.77 0 1 0-5.54 0v26.38a6.912 6.912 0 0 1-6.88 6.94H29.5a6.92 6.92 0 0 1-6.89-6.94V10.08a1.564 1.564 0 0 0-.02-.3v-.07c0-.08-.02-.14-.02-.19a.3.3 0 0 0-.05-.16c0-.03-.02-.07-.02-.1a1.262 1.262 0 0 0-.07-.16.637.637 0 0 1-.02-.09.669.669 0 0 1-.07-.17.405.405 0 0 1-.05-.09.346.346 0 0 0-.07-.12.673.673 0 0 0-.07-.11.607.607 0 0 0-.07-.1c-.02-.04-.07-.09-.09-.14a.1.1 0 0 1-.04-.07 1.741 1.741 0 0 1-.12-.14.108.108 0 0 1-.05-.04 1.788 1.788 0 0 0-.13-.14.13.13 0 0 0-.07-.05 1.741 1.741 0 0 1-.14-.12 1.142 1.142 0 0 0-.16-.09.179.179 0 0 1-.07-.05 2.092 2.092 0 0 1-.26-.13L3.84.22A2.759 2.759 0 0 0 .22 1.71 2.807 2.807 0 0 0 1.7 5.37l15.35 6.55v69.34a12.489 12.489 0 0 0 11.38 12.49 12.272 12.272 0 1 0 20.51.05h29.39a12.262 12.262 0 1 0 10.27-5.59H29.5a6.929 6.929 0 0 1-6.89-6.95v-9.2a12.306 12.306 0 0 0 6.89 2.12zm15.9 26.42a6.74 6.74 0 1 1-6.74-6.8 6.784 6.784 0 0 1 6.74 6.8zm49.92 0a6.74 6.74 0 1 1-6.74-6.8 6.79 6.79 0 0 1 6.74 6.8zM58.54 56.31a1.121 1.121 0 0 0 .21.18.55.55 0 0 0 .09.07c.05.03.07.07.12.1a.3.3 0 0 1 .11.07.746.746 0 0 1 .12.07.3.3 0 0 1 .11.07.284.284 0 0 0 .12.04c.04.03.09.03.11.05a.784.784 0 0 1 .14.05.3.3 0 0 0 .12.02c.04 0 .09.02.14.02s.09.03.13.03.07.02.12.02c.09 0 .18.02.28.02a1.229 1.229 0 0 0 .27-.02.968.968 0 0 0 .12-.02c.04 0 .09-.03.14-.03s.09-.02.14-.02.09-.02.13-.02a1.213 1.213 0 0 1 .14-.05.334.334 0 0 0 .12-.05.246.246 0 0 1 .11-.04c.05-.03.1-.05.14-.07a.746.746 0 0 1 .12-.07c.04-.03.09-.05.11-.07a.53.53 0 0 0 .12-.1.673.673 0 0 0 .11-.07c.07-.04.12-.11.19-.16l.02-.02 10.99-11.09a2.819 2.819 0 0 0 0-3.97 2.758 2.758 0 0 0-3.92 0l-6.26 6.32V8.84a2.77 2.77 0 1 0-5.54 0v38.73l-6.24-6.29a2.741 2.741 0 0 0-3.92 0 2.807 2.807 0 0 0 0 3.96z"/></svg>