<svg xmlns="http://www.w3.org/2000/svg" width="127" height="127" viewBox="0 0 127 127"><defs><style>.cls-1{fill:#fff;stroke:#fff;stroke-linejoin:round;stroke-width:1px;fill-rule:evenodd}</style></defs><path class="cls-1" d="M35 58.6a4.008 4.008 0 0 0 1.2 2.87l1.44 1.44a10.152 10.152 0 0 0 14.37 0l10.13-10.13a22.2 22.2 0 0 0 14.31 5.18h.01a22.307 22.307 0 0 0 15.83-6.57 2.036 2.036 0 0 0-2.88-2.88 18.192 18.192 0 0 1-12.96 5.38 18.168 18.168 0 0 1-12.94-5.36 2.034 2.034 0 0 0-2.87 0l-11.5 11.51a6.259 6.259 0 0 1-8.63 0l-1.44-1.44 24.44-24.45c2.28-2.28 4.45-2.28 7.19-2.28 2.94 0 6.6 0 10.07-3.47l5.75-5.75a2.033 2.033 0 0 0-2.88-2.87l-5.75 5.75c-2.28 2.28-4.44 2.28-7.19 2.28-2.93 0-6.59 0-10.06 3.47L36.2 55.72A4.048 4.048 0 0 0 35 58.6zM20.8 24.87a4.07 4.07 0 1 0-4.07-4.07 4.071 4.071 0 0 0 4.07 4.07zm19.71 6.41l5.75 5.75a2.036 2.036 0 1 0 2.88-2.88l-5.75-5.75a2.036 2.036 0 0 0-2.88 2.88zm65.68-14.55a4.065 4.065 0 1 0-4.06-4.06 4.065 4.065 0 0 0 4.06 4.06zm4.67 29.07c-3.31 3.3-4.44 8.69-5.54 13.89-.97 4.62-1.98 9.4-4.42 11.85l-2.88 2.88a2.033 2.033 0 1 0 2.88 2.87l2.87-2.87c3.3-3.31 4.44-8.69 5.53-13.89.98-4.62 1.98-9.41 4.43-11.86a2.03 2.03 0 0 0-2.87-2.87zm13.04 0L90.77 12.67l6.7-6.7a2.036 2.036 0 0 0-2.88-2.88l-8.13 8.14a2.016 2.016 0 0 0 0 2.87l34.56 34.57a2.033 2.033 0 1 0 2.88-2.87zM77.89 62.91a2.033 2.033 0 1 0-2.87 2.88l21.56 21.57a4.066 4.066 0 0 1-5.75 5.75L69.26 71.54a2.033 2.033 0 0 0-2.87 2.88l27.32 27.32a4.07 4.07 0 0 1-5.76 5.75L62.08 81.61a2.033 2.033 0 0 0-2.88 2.87l23 23.01a4.062 4.062 0 0 1 0 5.75 4.156 4.156 0 0 1-5.75 0l-2.87-2.88-18.69-18.69a2.036 2.036 0 0 0-2.88 2.88l18.69 18.69a4.066 4.066 0 0 1-5.75 5.75L30.37 84.44c-5.27-5.28-6.42-11.93-7.43-17.79-.85-4.94-1.65-9.6-4.77-12.72a2.036 2.036 0 1 0-2.88 2.88c2.21 2.2 2.87 6.06 3.64 10.53 1.06 6.14 2.38 13.78 8.56 19.97l34.59 34.56a8.136 8.136 0 0 0 13.73-4.17 8.3 8.3 0 0 0 9.27-1.58 8.146 8.146 0 0 1 11.5-5.76 8.142 8.142 0 0 0 0-11.5l-.77-.77a8.128 8.128 0 0 0 3.65-13.61zM40.53 19.36L28.34 7.16a2.036 2.036 0 0 0-2.88 2.88L36.22 20.8 3.09 53.93a2.036 2.036 0 0 0 2.88 2.88l34.56-34.57a2.028 2.028 0 0 0 0-2.88zm11.98 100.71a4.1 4.1 0 0 1-4.81-1.08c-1.74-1.74-1.73-3.77-1.17-4.65a2.031 2.031 0 0 0-3.14-2.54 4.07 4.07 0 0 1-5.76-5.75 2.033 2.033 0 1 0-2.87-2.88l-1.44 1.44a4.066 4.066 0 0 1-5.75-5.75l1.44-1.44a2.036 2.036 0 0 0-2.46-3.2c-1.1.64-3.05.57-4.73-1.11-1.78-1.79-1.78-3.76-1.2-4.6a2.035 2.035 0 1 0-3.35-2.31c-1.64 2.39-1.6 6.51 1.68 9.79a9.094 9.094 0 0 0 4.07 2.42 38.832 38.832 0 0 1 11.74 16.27 8.142 8.142 0 0 0 7.45 2.2 9.008 9.008 0 0 0 2.61 4.99 8.543 8.543 0 0 0 6.08 2.63 7.555 7.555 0 0 0 3.49-.83 2.031 2.031 0 1 0-1.88-3.6z"/></svg>