<svg xmlns="http://www.w3.org/2000/svg" width="124" height="124" viewBox="0 0 124 124"><defs><style>.cls-1{fill:#fff;fill-rule:evenodd}</style></defs><path class="cls-1" d="M105.84 18.17a62 62 0 0 0-91.8 83.14c-2.779 5.68-6.052 9.47-9.767 11.29a5.786 5.786 0 0 0 1.663 10.91 30.607 30.607 0 0 0 4.389.33 40.154 40.154 0 0 0 22.288-7.21 62.012 62.012 0 0 0 73.227-98.46zm-4.959 82.7a55.074 55.074 0 0 1-66.734 8.54 3.639 3.639 0 0 0-1.766-.49 3.694 3.694 0 0 0-2.156.72 33.379 33.379 0 0 1-19.457 7.14c4.182-3.11 7.689-7.94 10.625-14.67a3.534 3.534 0 0 0-.6-3.74 54.987 54.987 0 1 1 80.088 2.5zm-12.91-59.33H36.017a3.505 3.505 0 1 0 0 7.01h51.954a3.505 3.505 0 1 0 0-7.01zm0 16.96H36.017a3.505 3.505 0 1 0 0 7.01h51.954a3.505 3.505 0 1 0 0-7.01zm0 16.95H36.017a3.505 3.505 0 1 0 0 7.01h51.954a3.505 3.505 0 1 0 0-7.01z"/></svg>