<svg xmlns="http://www.w3.org/2000/svg" width="129.031" height="123" viewBox="0 0 129.031 123"><defs><style>.cls-1{fill:#fff;fill-rule:evenodd}</style></defs><path class="cls-1" d="M128.854 46.48a3.6 3.6 0 0 0-2.886-2.43l-40.245-5.71-18.11-36.36a3.6 3.6 0 0 0-3.2-1.98 3.571 3.571 0 0 0-3.2 2.01L43.331 38.47 3.086 44.45A3.583 3.583 0 0 0 .2 46.88a3.535 3.535 0 0 0 .926 3.65l29.2 28.26-6.751 40.03a3.6 3.6 0 0 0 3.521 4.18 3.4 3.4 0 0 0 1.668-.42l35.93-19.01 36.035 18.8a3.706 3.706 0 0 0 1.641.39 3.589 3.589 0 0 0 3.575-3.57 2.831 2.831 0 0 0-.106-.82l-6.964-39.79 29.019-28.42a3.5 3.5 0 0 0 .96-3.68zM92.581 74.8a3.523 3.523 0 0 0-1.006 3.17l6.063 34.72-31.3-16.32a3.667 3.667 0 0 0-3.336 0l-31.19 16.5 5.852-34.77a3.556 3.556 0 0 0-1.033-3.14L11.319 50.42l34.923-5.18a3.557 3.557 0 0 0 2.674-1.96l15.516-31.65L80.159 43.2a3.649 3.649 0 0 0 2.7 1.96l34.949 4.97z"/></svg>