<svg xmlns="http://www.w3.org/2000/svg" width="106" height="105.97" viewBox="0 0 106 105.97"><defs><style>.cls-1{fill:#fff;fill-rule:evenodd}</style></defs><path id="Forma_1" data-name="Forma 1" class="cls-1" d="M1316.73 1026.83a1.774 1.774 0 0 0-1.47-3.23 14.09 14.09 0 0 0-3.38 2.19 1.769 1.769 0 1 0 2.31 2.68 10.512 10.512 0 0 1 2.54-1.64zm6.17-.96h3.53a1.775 1.775 0 0 0 0-3.55h-3.53a1.775 1.775 0 0 0 0 3.55zm10.6 0h3.53a1.775 1.775 0 0 0 0-3.55h-3.53a1.775 1.775 0 0 0 0 3.55zm-7.07 21.28h-3.53a1.775 1.775 0 0 0 0 3.55h3.53a1.775 1.775 0 0 0 0-3.55zm21.2 0h-3.53a1.775 1.775 0 0 0 0 3.55h3.53a1.775 1.775 0 0 0 0-3.55zm-10.6 0h-3.53a1.775 1.775 0 0 0 0 3.55h3.53a1.775 1.775 0 0 0 0-3.55zm-20.3-.96a10.512 10.512 0 0 1-2.54-1.64 1.769 1.769 0 0 0-2.31 2.68 14.4 14.4 0 0 0 3.38 2.19 1.761 1.761 0 0 0 2.34-.88 1.77 1.77 0 0 0-.87-2.35zm41.5.96h-3.53a1.775 1.775 0 0 0 0 3.55h3.53a1.775 1.775 0 0 0 0-3.55zm31.8 0h-3.53a1.775 1.775 0 0 0 0 3.55h3.53a1.775 1.775 0 0 0 0-3.55zm10.6 0h-3.53a1.775 1.775 0 0 0 0 3.55h3.53a1.775 1.775 0 0 0 0-3.55zm-31.8 0h-3.53a1.775 1.775 0 0 0 0 3.55h3.53a1.775 1.775 0 0 0 0-3.55zm10.6 0h-3.53a1.775 1.775 0 0 0 0 3.55h3.53a1.775 1.775 0 0 0 0-3.55zm-62.7 52.25a10.82 10.82 0 0 1-2.54-1.64 1.769 1.769 0 0 0-2.31 2.68 14.052 14.052 0 0 0 3.38 2.18 1.77 1.77 0 0 0 1.47-3.22zm20.3.96h-3.53a1.77 1.77 0 0 0 0 3.54h3.53a1.77 1.77 0 0 0 0-3.54zm-10.6 0h-3.53a1.77 1.77 0 0 0 0 3.54h3.53a1.77 1.77 0 0 0 0-3.54zm42.4 0h-3.53a1.77 1.77 0 1 0 0 3.54h3.53a1.77 1.77 0 0 0 0-3.54zm5.3 1.77a1.767 1.767 0 0 0 1.77 1.77h3.53a1.77 1.77 0 0 0 0-3.54h-3.53a1.767 1.767 0 0 0-1.77 1.77zm12.37 1.77h3.53a1.77 1.77 0 0 0 0-3.54h-3.53a1.77 1.77 0 1 0 0 3.54zm-28.27-3.54h-3.53a1.77 1.77 0 0 0 0 3.54h3.53a1.77 1.77 0 0 0 0-3.54zm38.87 3.54h3.53a1.77 1.77 0 0 0 0-3.54h-3.53a1.77 1.77 0 1 0 0 3.54zm-49.47-3.54h-3.53a1.77 1.77 0 0 0 0 3.54h3.53a1.77 1.77 0 0 0 0-3.54zm37.1-26.61a7.07 7.07 0 1 0 7.07-7.09 7.089 7.089 0 0 0-7.07 7.09zm7.07-3.54a3.545 3.545 0 1 1-3.53 3.54 3.538 3.538 0 0 1 3.53-3.54zm-8.94-54.98l-9.6-9.64a2 2 0 0 0-2.84 0l-3.62 3.63-3.61-3.63a2 2 0 0 0-2.84 0l-9.61 9.64h-29.61a14.173 14.173 0 0 0-14.13 14.19v68.89a12.677 12.677 0 0 0 12.64 12.69H1413v-95.77h-30.14zm-11.02-6.05l6.03 6.05 24.73 24.83h-9.52l-19.91-19.99a1.9 1.9 0 0 0-2.68.02l-19.89 19.97h-9.52l28.22-28.33zm16.24 30.88h-32.48l16.24-16.31zm-26.31-30.88l2.54 2.55-28.23 28.33h-5.07l24.73-24.83zm-40.64 9.6h26.08l-3.64 3.65a1.7 1.7 0 0 0-1.12 1.12l-16.44 16.51h-4.88a10.64 10.64 0 0 1 0-21.28zm88.34 63.84h-19.44a8.865 8.865 0 0 1 0-17.73h19.44v17.73zm0-35.47h-1.77a1.775 1.775 0 0 0 0 3.55h1.77v10.64h-19.44a12.415 12.415 0 0 0 0 24.83h19.44v14.19h-1.77a1.77 1.77 0 1 0 0 3.54h1.77v3.55h-89.83a9.137 9.137 0 0 1-9.11-9.14v-3.91a1.76 1.76 0 0 0 .43-1.69 10.824 10.824 0 0 1-.43-3v-48.51a1.76 1.76 0 0 0 .43-1.69c-.03-.12-.05-.24-.08-.35.16.17.32.33.49.49.15.15.31.29.47.43.2.17.4.34.6.5.17.13.34.26.51.38.21.16.43.3.66.45.18.11.35.22.54.33.23.13.47.25.71.37.19.1.37.19.56.28.25.11.51.21.77.31l.57.21c.28.09.56.16.85.23.18.05.37.11.56.15.32.07.64.12.97.16.16.02.32.06.49.08a14.758 14.758 0 0 0 1.5.08h88.34v3.54zm-1.87-7.09l-14.14-14.19h.11a1.775 1.775 0 0 0 0-3.55h-3.54c-.03 0-.05.02-.08.02l-3.55-3.56h23.07v21.28h-1.87zm-3.43-17.74h-3.54a1.775 1.775 0 0 0 0 3.55h3.54a1.775 1.775 0 0 0 0-3.55z" transform="translate(-1307 -1005.03)"/></svg>