<svg xmlns="http://www.w3.org/2000/svg" width="115" height="115" viewBox="0 0 115 115"><defs><style>.cls-1{fill:#fff;fill-rule:evenodd}</style></defs><path class="cls-1" d="M98.177 98.18a57.535 57.535 0 1 0-81.364 0 57.611 57.611 0 0 0 81.364 0zM20.872 20.87a51.795 51.795 0 1 1 0 73.25 51.844 51.844 0 0 1 0-73.25zm36.623 58.16a2.954 2.954 0 0 0 2.041-.84 2.906 2.906 0 0 0 .845-2.04V60.36h15.79a2.923 2.923 0 0 0 2.041-.85 2.868 2.868 0 0 0-2.018-4.9H60.4V38.82a2.862 2.862 0 0 0-5.724 0v15.79H38.89a2.86 2.86 0 1 0 0 5.72h15.79v15.79a2.787 2.787 0 0 0 2.82 2.91z"/></svg>